# xmcd
#
# Track frame offsets:
#	150
#	17088
#	30451
#	42976
#	54376
#	70207
#	83776
#	99526
#	111451
#	126715
#	140701
#	164476
#	181763
#	195527
#	217576
#	232126
#	243451
#	257026
#	274495
#	285974
#	298469
#	311387
#	321796
#	331832
#	340965
#
# Disc length: 4713 seconds
#
# Revision: 0
# Processed by: cddbd v1.5.1PL2 Copyright (c) Steve Scherf et al.
# Submitted via: dBpowerAMP V4.0
#
DISCID=80126719
DTITLE=Various Artist - 50 Instrumental Favourites
DYEAR=1900
DGENRE=Instrumental
TTITLE0=Pierre Belmonde - Sailing
TTITLE1=Acker Bilk - Stranger on the Shore
TTITLE2=Light Shadows - Theme from Harry's Game
TTITLE3=The Hill/Wiltschinsky Guitar Duo - The Long and Winding Road
TTITLE4=MasterWorks - Chariots of Fire
TTITLE5=The Interlude Orchestra - Cacharpaya
TTITLE6=Pierre Belmonde - Aria
TTITLE7=The Hill/Wiltschinsky Guitar Duo - Walking in the Air
TTITLE8=The SRE Band - Theme from Brideshead Revisited
TTITLE9=The London Symphony Orchestra - Flying (Theme from ET)
TTITLE10=The Royal Phylharmnic Orchestra - Meditation from Thais
TTITLE11=Pierre Belmonde - Concierto de Aranjuez
TTITLE12=The Hill/Wiltschinsky Guitar Duo - Cavatina
TTITLE13=Julie Allis - Claire de Lune
TTITLE14=The London Symphony Orchestra - Morning (from Peer Gynt)
TTITLE15=The London Symphony Orchestra - Spring Song
TTITLE16=Acker Bilk - Morning Has Broken
TTITLE17=The London Symphony Orchestra - Cannon
TTITLE18=The Royal Philharmonic Orchestra - The Greatest Love of All
TTITLE19=The London Symphony Orchestra - Woman
TTITLE20=The Hollywood Studio Orchestra - Starlight Express
TTITLE21=The Hollywood Studio Orchestra - Pie Jesu
TTITLE22=The Hill/Wiltschinsky Guitar Duo - Faerie Queen
TTITLE23=The Hollywood Studio Orchestra - Close Every Door to Me
TTITLE24=The Hollywood Studio Orchestra - Oh What a Circus
EXTD=
EXTT0=
EXTT1=
EXTT2=
EXTT3=
EXTT4=
EXTT5=
EXTT6=
EXTT7=
EXTT8=
EXTT9=
EXTT10=
EXTT11=
EXTT12=
EXTT13=
EXTT14=
EXTT15=
EXTT16=
EXTT17=
EXTT18=
EXTT19=
EXTT20=
EXTT21=
EXTT22=
EXTT23=
EXTT24=
PLAYORDER=
